REM DIRINDEX 1\2,1\3
REM DIRNAME folder01,folder02,folder03
TITLE ""
FILE "Track66.mp3" MP3
  TRACK 01 AUDIO
    TITLE "2:cjc103_683"
    INDEX 01 00:00:00
  TRACK 02 AUDIO
    TITLE "0:"
    INDEX 01 00:01:46
  TRACK 03 AUDIO
    TITLE "3:cjc103_684"
    INDEX 01 00:02:12
  TRACK 04 AUDIO
    TITLE "0:"
    INDEX 01 00:04:35
